<?xml version="1.0" ?><svg height="32" width="32" viewBox="0 0 6.3499999 6.3500002" xmlns="http://www.w3.org/2000/svg">
  <g>
    <path class="favicon-briefcase" d="m 1.1146618,1.4550098 c -0.61315074,0 -1.11569505,0.5020273 -1.11569505,1.1151775 v 2.2675628 c 0,0.6131587 0.50254431,1.1156924 1.11569505,1.1156924 h 4.1206791 c 0.6131481,0 1.1156924,-0.5025337 1.1156924,-1.1156924 V 2.5701873 c 0,-0.6131502 -0.5025443,-1.1151775 -1.1156924,-1.1151775 z m 1.3983626,0.7932333 h 1.3239512 c 0.2885811,0 0.5296827,0.2405867 0.5296827,0.5291667 V 3.173768 c 0,0.28858 -0.2411016,0.5296842 -0.5296827,0.5296842 H 2.5130244 C 2.224446,3.7034522 1.9833418,3.462348 1.9833418,3.173768 V 2.7774098 c 0,-0.28858 0.2411042,-0.5291667 0.5296826,-0.5291667 z M 0.52864937,2.9670623 2.1828138,4.1504526 c 0.5251583,0.3754199 1.459193,0.3754305 1.9843751,0 L 5.8213507,2.9670623 v 0.6495722 l -1.3477214,0.963766 c -0.7437808,0.5316987 -1.8534883,0.5316908 -2.5972585,0 L 0.52864937,3.6166345 Z"/>
    <path class="favicon-handle" d="m 2.116411,0.39655752 c -0.28858,0 -0.5293,0.24072 -0.5293,0.5293 V 1.4551475 c 0,0.28858 0.24072,0.5293 0.5293,0.5293 h 2.11719 c 0.28857,0 0.52929,-0.24072 0.52929,-0.5293 V 0.92585752 c 0,-0.28858 -0.24072,-0.5293 -0.52929,-0.5293 z m 0,0.5293 h 2.11719 V 1.4551475 h -2.11719 z"/>
  </g>
</svg>